<svg id="Layer_1" data-name="Layer 1" xmlns="http://www.w3.org/2000/svg" viewBox="0 0 1366 1400" width="1366" height="1400"><defs><style>.cls-1{fill:#8e8179;}</style></defs><path class="cls-1 svg-elem-1" d="M935.46,675.48V635.23H413.54v40.25h62.8l56.11,56.08L507.8,833.43l-.66,2.73L505.62,842l0,.1H541.7v0l2.07-8.55,23.41-96.7H787l33.13,96.6,1.62,4.73,1.33,3.85,0,.09h9l0-.07,0,0,18.9.07v.05h10.82l-2.78-7.7-.3-.86L822.86,728.77l49.33-53.29ZM422.1,666.91V643.79H926.89v23.12H422.1Zm149.72,50.91h208.7l3.56,10.37H569.29Zm2.07-8.62L582,675.48H766l11.58,33.72Zm-58.46-33.72H546l-6,24.63Zm319.13,0L812.7,699.13l-8.11-23.65Zm-331.31,0,34.07,34.09-2.86,11.8-45.9-45.89Zm316.44,44-3.81-11.12,30.39-32.92h14.15ZM516.6,835.05l.39-1.6,37.45-154.61h18l-14.12,58.24h0L535,833.5l-.38,1.55ZM833,834.93l-.5-1.46-29.94-87.24L779,677l15.08.06h.34l11.91,34.74.08.25,1.75,5.09,39.89,116.37.51,1.49Z"></path><path class="cls-1 svg-elem-2" d="M133.3,686.77l-10.74-.28-.78-7.93c-.13-1.73-.78-2.85-1.93-3.34a10.92,10.92,0,0,0-4.32-.85L60.62,673l-.06,2.81a15.72,15.72,0,0,0,.66,5.38,8.92,8.92,0,0,0,2.6,3.86A16.63,16.63,0,0,0,69,688c2.23.83,5,1.67,8.43,2.58l-3,14.71-26.88-4.46,2-81.38,27.17-3,2.21,14.69a62,62,0,0,0-8.61,2.19A18.16,18.16,0,0,0,64.88,636a8.91,8.91,0,0,0-2.72,3.59,15.1,15.1,0,0,0-.83,4.87l-.08,3.18,55,1.36a13.94,13.94,0,0,0,4.16-.47c1.14-.33,1.86-1.51,2.15-3.55l1.17-7.65,10.74.26Z"></path><path class="cls-1 svg-elem-3" d="M153.68,522.2l-10-3.84.68-4.21a4.2,4.2,0,0,0-.35-3.32c-.53-.79-1.89-1.59-4.1-2.44L93,490.34a8.72,8.72,0,0,0-4.44-.85,4.52,4.52,0,0,0-2.58,2.5l-2,3.42-10-3.9,14.75-38.38,10,3.88-.7,4.17c-.32,1.53-.17,2.66.46,3.37a11.13,11.13,0,0,0,4.05,2.31l15.82,6.06,9.42-24.49-16.29-6.25c-1.9-.74-3.3-1-4.21-.79s-1.77,1-2.59,2.48l-2.15,3.22-10-3.86L107.23,405l10,3.88-.88,4a4.14,4.14,0,0,0,.4,3.34q.85,1.2,4,2.43L168,436.71c2.06.78,3.48,1,4.3.72a5.7,5.7,0,0,0,2.5-2.45l2.16-3.2,10,3.86-14.71,38.27-10-3.88.65-4a4.28,4.28,0,0,0-.36-3.36c-.53-.77-1.89-1.57-4.1-2.42l-17.08-6.56-9.42,24.47,17.54,6.77c2.13.81,3.57,1.07,4.33.81a5.77,5.77,0,0,0,2.43-2.42l2.19-3.32,10,3.84Z"></path><path class="cls-1 svg-elem-4" d="M239.86,349.3l-8.22-6.91,2-3.71a4.23,4.23,0,0,0,.79-3.32c-.27-.87-1.31-2.09-3.12-3.59l-38.54-32.5c-1.62-1.34-2.91-2.09-3.86-2.13a4.62,4.62,0,0,0-3.21,1.45l-3,2.6-8.21-6.94L219,241.43l21.08,12.5-7.57,11.83a54.26,54.26,0,0,0-6.29-2.69,12.65,12.65,0,0,0-4.79-.76,8.37,8.37,0,0,0-4.07,1.45,19.6,19.6,0,0,0-4.26,4l-7.62,9,18.2,15.35,3-3.57a7.2,7.2,0,0,0,1.73-3.08,4.78,4.78,0,0,0-.57-3.19,29.57,29.57,0,0,0-3-4.59l5.89-8.08,22.12,18.63-5.48,8.79a22.55,22.55,0,0,0-4.92-2.7,4.72,4.72,0,0,0-3.38-.17,8.36,8.36,0,0,0-3,2.44l-2.91,3.46,18.48,15.56,8.42-10a19.72,19.72,0,0,0,3.29-5.11,8.29,8.29,0,0,0,.51-4.61,16.38,16.38,0,0,0-2-5.07,68,68,0,0,0-4.27-6.29l9-10.65L286,294.52Z"></path><path class="cls-1 svg-elem-5" d="M484.65,161.66l-34-60.83c-1.09-2-2.07-3.2-2.91-3.63a7.47,7.47,0,0,0-4-.33l-5.19.51-3-10.29L478.7,74.31l3.11,10.55-4.91,2.33c-1.49.7-2.27,1.57-2.34,2.6A9,9,0,0,0,475.74,94l21,39.12.35-.1-3.15-63.2L517,63l33.3,55.46.35-.1L546,72.62a10.73,10.73,0,0,0-1.09-4.1c-.44-.66-1.43-.87-3-.66l-6.05.66-3-10.22,32.89-9.7,3.11,10.53-5.61,2.56a11.67,11.67,0,0,0-2.21,1.09,3.51,3.51,0,0,0-1.43,1.88,11.32,11.32,0,0,0-.24,4.12L564.58,138l-26.69,7.88L509.06,97.8l-.36.1,2.64,55.88Z"></path><path class="cls-1 svg-elem-6" d="M723.7,129.53Q709,128.42,700,122.1a34.06,34.06,0,0,1-12.7-16.38,51.9,51.9,0,0,1-2.83-22.37q1.13-14.85,7.56-24.55a37.48,37.48,0,0,1,17-14.22c7.05-3,15.07-4.13,24.07-3.42a46.13,46.13,0,0,1,21.36,6.52A34.45,34.45,0,0,1,767.88,63q4.46,9.75,3.41,23.62a57.15,57.15,0,0,1-4.11,17.69,43.31,43.31,0,0,1-9.28,14.15,36.9,36.9,0,0,1-14.51,8.94A48.77,48.77,0,0,1,723.7,129.53Zm2.59-14.59a16.27,16.27,0,0,0,7-.88,12.23,12.23,0,0,0,5.4-4.32,25.56,25.56,0,0,0,3.8-8.83,86.66,86.66,0,0,0,2.13-14.34,70.36,70.36,0,0,0-.09-13.33A30.57,30.57,0,0,0,742,63.67a14.14,14.14,0,0,0-4.94-5.88,15.43,15.43,0,0,0-7.35-2.34,15.64,15.64,0,0,0-7.17,1A12.83,12.83,0,0,0,717,60.92a25.06,25.06,0,0,0-3.85,8.65,76.84,76.84,0,0,0-2.08,13.6,75.92,75.92,0,0,0,0,13.45,30.24,30.24,0,0,0,2.49,9.82,14.77,14.77,0,0,0,5.06,6.09A16.27,16.27,0,0,0,726.29,114.94Z"></path><path class="cls-1 svg-elem-7" d="M903.23,174.41q-13.51-6-19.84-14.9a34.25,34.25,0,0,1-6.52-19.7,52.11,52.11,0,0,1,4.79-22q6-13.65,15.32-20.65a37.2,37.2,0,0,1,20.76-7.7c7.62-.48,15.56,1.13,23.82,4.77q11.4,5,18,13.24a35,35,0,0,1,7.53,18.94q.94,10.71-4.67,23.42a57.21,57.21,0,0,1-9.76,15.31,43.72,43.72,0,0,1-13.47,10.28A36.83,36.83,0,0,1,922.49,179,49,49,0,0,1,903.23,174.41Zm7.29-12.94a16,16,0,0,0,6.89,1.53,12.29,12.29,0,0,0,6.53-2.25,26.35,26.35,0,0,0,6.52-7.08,84.43,84.43,0,0,0,6.79-12.81,70.75,70.75,0,0,0,4.36-12.61,30.41,30.41,0,0,0,.81-9.86,14,14,0,0,0-2.69-7.18,15.09,15.09,0,0,0-6.15-4.64,15.6,15.6,0,0,0-7.1-1.47,12.86,12.86,0,0,0-6.71,2.37,25.21,25.21,0,0,0-6.5,6.85,76.41,76.41,0,0,0-6.49,12.16,75.8,75.8,0,0,0-4.48,12.69,30.06,30.06,0,0,0-.91,10.07,14.49,14.49,0,0,0,2.74,7.42A15.52,15.52,0,0,0,910.52,161.47Z"></path><path class="cls-1 svg-elem-8" d="M1027.78,245.91l7.34-7.82,3.62,2.2a4.22,4.22,0,0,0,3.26,1c.89-.24,2.13-1.21,3.75-2.93l34.48-36.79c1.44-1.52,2.23-2.76,2.33-3.73a4.63,4.63,0,0,0-1.27-3.28l-2.43-3.12,7.34-7.86,30.46,28.58a74.93,74.93,0,0,1,8.64,9.59,46.75,46.75,0,0,1,6.24,11,32.81,32.81,0,0,1-.44,25.34,47.4,47.4,0,0,1-9.49,13.85,53.94,53.94,0,0,1-15.7,12,35.45,35.45,0,0,1-16.81,3.65,42.17,42.17,0,0,1-17.86-4.93A83.86,83.86,0,0,1,1052.35,269Zm38.44,16.65a22.8,22.8,0,0,0,8.28,5.24,14.22,14.22,0,0,0,8.35.21,27.23,27.23,0,0,0,8.88-4.56,75.38,75.38,0,0,0,10-9.12q6.43-6.84,8.79-12.78a17.32,17.32,0,0,0,1-11,19.92,19.92,0,0,0-6-9.43l-4.73-4.42L1062.1,258c.66.85,1.32,1.63,2,2.35S1065.44,261.82,1066.22,262.56Z"></path><path class="cls-1 svg-elem-9" d="M1211.47,532.33q-3.39-12.23-.94-22.62a35.23,35.23,0,0,1,10.55-17.93c5.39-5,12.6-8.83,21.63-11.28a54.65,54.65,0,0,1,18.59-2.13,39.32,39.32,0,0,1,15.93,4.46,37.55,37.55,0,0,1,12.36,10.56,46.84,46.84,0,0,1,7.8,16.26,31.88,31.88,0,0,1,1.31,10.67,31,31,0,0,1-2.11,9.31l6.27-.21,2.52,9.06-28.29,12.65L1271.6,540a38,38,0,0,0,9.09-8.08,19,19,0,0,0,3.72-8.07,18.27,18.27,0,0,0-.43-8.17,16.52,16.52,0,0,0-5.92-9.27,18.9,18.9,0,0,0-10.58-3.44,45.39,45.39,0,0,0-14.47,1.89,48,48,0,0,0-13.67,5.76,23.51,23.51,0,0,0-7.47,7.35,17.22,17.22,0,0,0-2.63,8.11,25.09,25.09,0,0,0,.88,8.19A30.2,30.2,0,0,0,1234,543a29.75,29.75,0,0,0,5.5,6.33,27.46,27.46,0,0,0,5.47,3.76l-8,10.31a51.85,51.85,0,0,1-6.52-3.69,42.19,42.19,0,0,1-7.18-6.05,46.87,46.87,0,0,1-6.67-9A50.84,50.84,0,0,1,1211.47,532.33Z"></path><path class="cls-1 svg-elem-10" d="M1229.86,706.77q.84-14.76,7-23.79A34.18,34.18,0,0,1,1253,670a51.78,51.78,0,0,1,22.31-3.22q14.87.84,24.71,7.1a37.58,37.58,0,0,1,14.49,16.73q4.64,10.5,3.85,24-.73,12.43-6.14,21.48a34.8,34.8,0,0,1-15.11,13.66q-9.66,4.63-23.56,3.82a57.08,57.08,0,0,1-17.75-3.8,43.94,43.94,0,0,1-14.34-9,37.08,37.08,0,0,1-9.18-14.34A48.81,48.81,0,0,1,1229.86,706.77Zm14.65,2.31a15.87,15.87,0,0,0,1,6.95,12.08,12.08,0,0,0,4.39,5.35,26.18,26.18,0,0,0,8.9,3.61,81.89,81.89,0,0,0,14.37,1.9,69.61,69.61,0,0,0,13.35-.31,30.72,30.72,0,0,0,9.51-2.71,14.12,14.12,0,0,0,5.8-5,15.5,15.5,0,0,0,2.2-7.39,15.74,15.74,0,0,0-1.11-7.16,13.15,13.15,0,0,0-4.58-5.44,25.24,25.24,0,0,0-8.71-3.72,91,91,0,0,0-27.1-1.57,30.15,30.15,0,0,0-9.75,2.66,14.33,14.33,0,0,0-6,5.16A15.75,15.75,0,0,0,1244.51,709.08Z"></path><path class="cls-1 svg-elem-11" d="M1205.63,848.46l10,4-.81,4.27A4.17,4.17,0,0,0,1215,860c.5.7,1.88,1.55,4.14,2.45l46.75,18.86c2,.81,3.42,1.1,4.39.87a4.08,4.08,0,0,0,2.5-2.29l2.08-3.51,9.95,4-16.2,40.19-9.85-4,1.39-5.76a4.77,4.77,0,0,0-.18-3.63c-.5-.81-1.7-1.61-3.59-2.37l-50.92-20.56-3.16,7.83a17,17,0,0,0-1.35,5.65,9.34,9.34,0,0,0,1.22,4.83,18.87,18.87,0,0,0,4.08,4.87c1.87,1.67,4.26,3.67,7.18,6l-5.34,13.27-28.07-14.88Z"></path><path class="cls-1 svg-elem-12" d="M1127.3,1000.62l8.26,6.87-2.08,3.82a4.16,4.16,0,0,0-.76,3.17c.26.85,1.32,2.07,3.2,3.64l38.73,32.25a8.64,8.64,0,0,0,3.93,2.16,4.1,4.1,0,0,0,3.08-1.42l3-2.7,8.25,6.85-27.72,33.3-8.15-6.77,3.09-5a4.91,4.91,0,0,0,.93-3.53c-.22-.91-1.13-2-2.69-3.34l-42.21-35.14-5.38,6.46a16.73,16.73,0,0,0-3,5,9.23,9.23,0,0,0-.33,5,19.36,19.36,0,0,0,2.39,5.9c1.27,2.15,2.94,4.77,5,7.9l-9.13,10.94-22.18-22.72Z"></path><path class="cls-1 svg-elem-13" d="M1006.82,1121l5.72,9.08-3,3c-1.18,1-1.78,2-1.77,2.91s.62,2.37,1.88,4.37l26.83,42.67q1.71,2.67,3,3.2a4.74,4.74,0,0,0,3.5-.37l3.63-1.57,5.72,9.08-58.48,36.77-16.28-18.3,10.81-9a52.54,52.54,0,0,0,5.19,4.46,12.34,12.34,0,0,0,4.32,2.17,8.26,8.26,0,0,0,4.32-.11,21.27,21.27,0,0,0,5.26-2.53l10-6.3-12.68-20.16-3.93,2.48a7.44,7.44,0,0,0-2.58,2.43,4.89,4.89,0,0,0-.42,3.22,28.9,28.9,0,0,0,1.49,5.24l-8.07,6-15.41-24.48,7.91-6.68a23.11,23.11,0,0,0,3.84,4,4.84,4.84,0,0,0,3.19,1.18,8,8,0,0,0,3.59-1.4l3.83-2.4-12.87-20.47-11.06,7a20.22,20.22,0,0,0-4.68,3.9,8.26,8.26,0,0,0-1.9,4.21,16.37,16.37,0,0,0,.4,5.44,63.23,63.23,0,0,0,2.15,7.31l-11.78,7.41-12.32-25.55Z"></path><path class="cls-1 svg-elem-14" d="M811.21,1208c8.21-2,15.77-2.12,22.62-.29a35.08,35.08,0,0,1,17.62,11.06q7.34,8.29,10.69,21.94a54.85,54.85,0,0,1,1.58,18.65,39.68,39.68,0,0,1-4.9,15.81,38.47,38.47,0,0,1-10.92,12,47.24,47.24,0,0,1-16.49,7.34,32.56,32.56,0,0,1-10.69,1,30.6,30.6,0,0,1-9.26-2.37l0,6.29-9.12,2.25-11.83-28.66,11.29-5.14a37.89,37.89,0,0,0,7.82,9.31,19.08,19.08,0,0,0,8,3.94,18.12,18.12,0,0,0,8.18-.21,16.38,16.38,0,0,0,9.42-5.63,19,19,0,0,0,3.77-10.48,46.34,46.34,0,0,0-1.51-14.53,48.11,48.11,0,0,0-5.35-13.82,24,24,0,0,0-7.11-7.68A17.44,17.44,0,0,0,817,1226a25.58,25.58,0,0,0-8.19.64,31.3,31.3,0,0,0-8.85,3.61,30.45,30.45,0,0,0-6.48,5.33,26.69,26.69,0,0,0-3.9,5.34l-10.1-8.31a56.84,56.84,0,0,1,3.89-6.44,40.16,40.16,0,0,1,6.25-7,48.46,48.46,0,0,1,9.16-6.41A52.33,52.33,0,0,1,811.21,1208Z"></path><path class="cls-1 svg-elem-15" d="M659.71,1225.12l-.94,10.69-8,.28a3.55,3.55,0,0,0-3.45,1.72,11.58,11.58,0,0,0-1.11,4.23l-4.8,54.72,2.8.25a15.78,15.78,0,0,0,5.42-.31,9.08,9.08,0,0,0,4-2.36,16.41,16.41,0,0,0,3.2-5,87.46,87.46,0,0,0,3.1-8.25l14.48,4-6.13,26.54-81.09-7.12-1.28-27.3,14.81-1.28a61.9,61.9,0,0,0,1.63,8.73,18.06,18.06,0,0,0,2.39,5.53,8.71,8.71,0,0,0,3.42,3,15.59,15.59,0,0,0,4.8,1.15l3.16.25,4.82-54.8a13.94,13.94,0,0,0-.19-4.19c-.27-1.16-1.39-2-3.42-2.4l-7.56-1.63.94-10.71Z"></path><path class="cls-1 svg-elem-16" d="M497.09,1192.93l-4,9.94-4.4-.84c-1.63-.31-2.79-.15-3.5.49a11.37,11.37,0,0,0-2.18,3.8l-18.85,46.74c-.81,2-1.12,3.38-.95,4.29s1,1.83,2.55,2.8l3.39,2-4,10-38.5-15.51,4-10,4.39.85a4.38,4.38,0,0,0,3.24-.33c.78-.52,1.59-1.84,2.45-4l18.85-46.75a9.34,9.34,0,0,0,1-4.15c-.1-.78-.94-1.67-2.48-2.64l-3.53-2.33,4-10Z"></path><path class="cls-1 svg-elem-17" d="M346.6,1110l-24.06,67.54a14.51,14.51,0,0,0-1.18,4.93,6.26,6.26,0,0,0,1.61,3.26l3.18,3.81-6.77,8.36-35.56-28.8,7-8.63,5.38,3.24c1.31.85,2.36,1,3.18.62s1.65-1.73,2.46-3.92L319.11,1116l-.57-.45-39.78,25.26c-2,1.34-3.17,2.47-3.5,3.44s.13,2.17,1.37,3.47l4,4.52-7.56,8.17-26-21,6.83-8.46,4.79,2.66a4.88,4.88,0,0,0,3.29.69,22.58,22.58,0,0,0,5.19-2.65l60.22-37.12Z"></path><path class="cls-1 svg-elem-18" d="M237.75,999.46l-9.09,5.72-2.94-3.08a4.13,4.13,0,0,0-2.92-1.75c-.91,0-2.36.62-4.36,1.88l-42.67,26.82c-1.78,1.14-2.85,2.17-3.2,3a4.61,4.61,0,0,0,.39,3.5l1.56,3.63-9.09,5.72-36.78-58.46L147,970.18l9,10.82a55,55,0,0,0-4.46,5.17,12.86,12.86,0,0,0-2.19,4.32,8.3,8.3,0,0,0,.13,4.33,20,20,0,0,0,2.52,5.26l6.3,10,20.15-12.67-2.47-3.94a7.9,7.9,0,0,0-2.42-2.58,4.91,4.91,0,0,0-3.23-.41A27.3,27.3,0,0,0,165,992l-6-8.08,24.48-15.42,6.71,7.9a21.62,21.62,0,0,0-4.06,3.88,4.75,4.75,0,0,0-1.18,3.18A8.12,8.12,0,0,0,186.4,987l2.41,3.82L209.27,978l-7-11.06a18.56,18.56,0,0,0-3.89-4.66,8.45,8.45,0,0,0-4.22-1.92,16.91,16.91,0,0,0-5.43.41c-2.12.48-4.54,1.2-7.31,2.13l-7.41-11.78,25.56-12.32Z"></path></svg>
